<?xml version="1.0" encoding="UTF-8" standalone="no"?>
<!DOCTYPE svg PUBLIC "-//W3C//DTD SVG 1.1//EN"
 "http://www.w3.org/Graphics/SVG/1.1/DTD/svg11.dtd">
<!-- Generated by graphviz version 2.43.0 (0)
 -->
<!-- Title: %3 Pages: 1 -->
<svg width="416pt" height="404pt"
 viewBox="0.00 0.00 415.98 404.00" xmlns="http://www.w3.org/2000/svg" xmlns:xlink="http://www.w3.org/1999/xlink">
<g id="graph0" class="graph" transform="scale(1 1) rotate(0) translate(4 400)">
<title>%3</title>
<polygon fill="white" stroke="transparent" points="-4,4 -4,-400 411.98,-400 411.98,4 -4,4"/>
<!-- define -->
<g id="node1" class="node">
<title>define</title>
<ellipse fill="none" stroke="black" cx="252.49" cy="-378" rx="100.98" ry="18"/>
<text text-anchor="middle" x="252.49" y="-374.3" font-family="Times,serif" font-size="14.00">Define the Problem</text>
</g>
<!-- specify -->
<g id="node2" class="node">
<title>specify</title>
<ellipse fill="none" stroke="black" cx="252.49" cy="-306" rx="113.18" ry="18"/>
<text text-anchor="middle" x="252.49" y="-302.3" font-family="Times,serif" font-size="14.00">Specify Requirements</text>
</g>
<!-- define&#45;&gt;specify -->
<g id="edge1" class="edge">
<title>define&#45;&gt;specify</title>
<path fill="none" stroke="black" d="M252.49,-359.7C252.49,-351.98 252.49,-342.71 252.49,-334.11"/>
<polygon fill="black" stroke="black" points="255.99,-334.1 252.49,-324.1 248.99,-334.1 255.99,-334.1"/>
</g>
<!-- brainstorm -->
<g id="node3" class="node">
<title>brainstorm</title>
<ellipse fill="none" stroke="black" cx="252.49" cy="-234" rx="122.38" ry="18"/>
<text text-anchor="middle" x="252.49" y="-230.3" font-family="Times,serif" font-size="14.00">Brainstorm/CAD Design</text>
</g>
<!-- specify&#45;&gt;brainstorm -->
<g id="edge2" class="edge">
<title>specify&#45;&gt;brainstorm</title>
<path fill="none" stroke="black" d="M252.49,-287.7C252.49,-279.98 252.49,-270.71 252.49,-262.11"/>
<polygon fill="black" stroke="black" points="255.99,-262.1 252.49,-252.1 248.99,-262.1 255.99,-262.1"/>
</g>
<!-- prototype -->
<g id="node4" class="node">
<title>prototype</title>
<ellipse fill="none" stroke="black" cx="181.49" cy="-162" rx="114.28" ry="18"/>
<text text-anchor="middle" x="181.49" y="-158.3" font-family="Times,serif" font-size="14.00">Prototype/Experiment</text>
</g>
<!-- brainstorm&#45;&gt;prototype -->
<g id="edge3" class="edge">
<title>brainstorm&#45;&gt;prototype</title>
<path fill="none" stroke="black" d="M235.3,-216.05C226.62,-207.5 215.93,-196.96 206.38,-187.54"/>
<polygon fill="black" stroke="black" points="208.59,-184.8 199.01,-180.28 203.68,-189.79 208.59,-184.8"/>
</g>
<!-- test -->
<g id="node5" class="node">
<title>test</title>
<ellipse fill="none" stroke="black" cx="181.49" cy="-90" rx="30.59" ry="18"/>
<text text-anchor="middle" x="181.49" y="-86.3" font-family="Times,serif" font-size="14.00">Test</text>
</g>
<!-- prototype&#45;&gt;test -->
<g id="edge4" class="edge">
<title>prototype&#45;&gt;test</title>
<path fill="none" stroke="black" d="M181.49,-143.7C181.49,-135.98 181.49,-126.71 181.49,-118.11"/>
<polygon fill="black" stroke="black" points="184.99,-118.1 181.49,-108.1 177.99,-118.1 184.99,-118.1"/>
</g>
<!-- analyze -->
<g id="node6" class="node">
<title>analyze</title>
<ellipse fill="none" stroke="black" cx="323.49" cy="-18" rx="84.49" ry="18"/>
<text text-anchor="middle" x="323.49" y="-14.3" font-family="Times,serif" font-size="14.00">Analyze Results</text>
</g>
<!-- test&#45;&gt;analyze -->
<g id="edge5" class="edge">
<title>test&#45;&gt;analyze</title>
<path fill="none" stroke="black" d="M204.3,-77.75C225.32,-67.39 257,-51.77 282.42,-39.24"/>
<polygon fill="black" stroke="black" points="284.05,-42.34 291.47,-34.78 280.95,-36.07 284.05,-42.34"/>
</g>
<!-- implementation -->
<g id="node7" class="node">
<title>implementation</title>
<ellipse fill="none" stroke="black" cx="110.49" cy="-18" rx="110.48" ry="18"/>
<text text-anchor="middle" x="110.49" y="-14.3" font-family="Times,serif" font-size="14.00">Final Implementation</text>
</g>
<!-- test&#45;&gt;implementation -->
<g id="edge7" class="edge">
<title>test&#45;&gt;implementation</title>
<path fill="none" stroke="black" d="M166.43,-74.15C157.26,-65.11 145.33,-53.35 134.84,-43.01"/>
<polygon fill="black" stroke="black" points="137.1,-40.32 127.52,-35.79 132.18,-45.3 137.1,-40.32"/>
</g>
<!-- analyze&#45;&gt;brainstorm -->
<g id="edge6" class="edge">
<title>analyze&#45;&gt;brainstorm</title>
<path fill="none" stroke="black" d="M324.99,-36.45C326.87,-67.13 327.47,-132.02 304.49,-180 299.24,-190.97 290.79,-201.05 282.22,-209.41"/>
<polygon fill="black" stroke="black" points="279.73,-206.95 274.73,-216.3 284.46,-212.11 279.73,-206.95"/>
</g>
</g>
</svg>
