<?xml version="1.0" encoding="UTF-8" standalone="no"?>
<!DOCTYPE svg PUBLIC "-//W3C//DTD SVG 1.1//EN"
 "http://www.w3.org/Graphics/SVG/1.1/DTD/svg11.dtd">
<!-- Generated by graphviz version 2.43.0 (0)
 -->
<!-- Title: %3 Pages: 1 -->
<svg width="546pt" height="305pt"
 viewBox="0.00 0.00 546.04 305.00" xmlns="http://www.w3.org/2000/svg" xmlns:xlink="http://www.w3.org/1999/xlink">
<g id="graph0" class="graph" transform="scale(1 1) rotate(0) translate(4 301)">
<title>%3</title>
<polygon fill="white" stroke="transparent" points="-4,4 -4,-301 542.04,-301 542.04,4 -4,4"/>
<!-- start -->
<g id="node1" class="node">
<title>start</title>
<ellipse fill="none" stroke="black" cx="174.04" cy="-279" rx="34.39" ry="18"/>
<text text-anchor="middle" x="174.04" y="-275.3" font-family="Times,serif" font-size="14.00">Start</text>
</g>
<!-- extend -->
<g id="node2" class="node">
<title>extend</title>
<ellipse fill="none" stroke="black" cx="63.04" cy="-192" rx="63.09" ry="18"/>
<text text-anchor="middle" x="63.04" y="-188.3" font-family="Times,serif" font-size="14.00">Extend Lift</text>
</g>
<!-- start&#45;&gt;extend -->
<g id="edge1" class="edge">
<title>start&#45;&gt;extend</title>
<path fill="none" stroke="black" d="M140.77,-274.17C104.41,-269.21 49.66,-259.24 37.04,-243 31.1,-235.35 33.65,-226.14 39,-217.72"/>
<polygon fill="black" stroke="black" points="41.86,-219.74 45.08,-209.65 36.27,-215.53 41.86,-219.74"/>
<text text-anchor="middle" x="73.04" y="-231.8" font-family="Times,serif" font-size="14.00">X Pressed</text>
</g>
<!-- extend&#45;&gt;start -->
<g id="edge3" class="edge">
<title>extend&#45;&gt;start</title>
<path fill="none" stroke="black" d="M84.13,-209.01C91.96,-214.96 100.91,-221.78 109.04,-228 121.69,-237.68 135.7,-248.44 147.46,-257.5"/>
<polygon fill="black" stroke="black" points="145.51,-260.42 155.57,-263.75 149.79,-254.87 145.51,-260.42"/>
<text text-anchor="middle" x="161.54" y="-231.8" font-family="Times,serif" font-size="14.00">Y Pressed</text>
</g>
<!-- dump -->
<g id="node3" class="node">
<title>dump</title>
<ellipse fill="none" stroke="black" cx="151.04" cy="-105" rx="87.18" ry="18"/>
<text text-anchor="middle" x="151.04" y="-101.3" font-family="Times,serif" font-size="14.00">Set Servo Dump</text>
</g>
<!-- extend&#45;&gt;dump -->
<g id="edge2" class="edge">
<title>extend&#45;&gt;dump</title>
<path fill="none" stroke="black" d="M58.94,-173.81C57.47,-163.43 57.53,-150.43 64.04,-141 69.15,-133.6 76.1,-127.77 83.87,-123.16"/>
<polygon fill="black" stroke="black" points="85.65,-126.18 92.92,-118.47 82.43,-119.97 85.65,-126.18"/>
<text text-anchor="middle" x="133.54" y="-144.8" font-family="Times,serif" font-size="14.00">Lift Fully Extended</text>
</g>
<!-- dump&#45;&gt;start -->
<g id="edge4" class="edge">
<title>dump&#45;&gt;start</title>
<path fill="none" stroke="black" d="M184.65,-121.61C192.01,-126.7 198.85,-133.12 203.04,-141 224.35,-181.02 216.17,-200.25 201.04,-243 199.67,-246.88 197.69,-250.67 195.42,-254.23"/>
<polygon fill="black" stroke="black" points="192.41,-252.42 189.34,-262.56 198.06,-256.55 192.41,-252.42"/>
<text text-anchor="middle" x="250.54" y="-188.3" font-family="Times,serif" font-size="14.00">Y Pressed</text>
</g>
<!-- reset -->
<g id="node4" class="node">
<title>reset</title>
<ellipse fill="none" stroke="black" cx="233.04" cy="-18" rx="126.18" ry="18"/>
<text text-anchor="middle" x="233.04" y="-14.3" font-family="Times,serif" font-size="14.00">Reset Servo, Retract Lift</text>
</g>
<!-- dump&#45;&gt;reset -->
<g id="edge5" class="edge">
<title>dump&#45;&gt;reset</title>
<path fill="none" stroke="black" d="M147.02,-86.87C145.59,-76.51 145.65,-63.51 152.04,-54 155.89,-48.28 160.89,-43.48 166.51,-39.47"/>
<polygon fill="black" stroke="black" points="168.48,-42.37 175.14,-34.13 164.8,-36.41 168.48,-42.37"/>
<text text-anchor="middle" x="227.04" y="-57.8" font-family="Times,serif" font-size="14.00">Minerals be Dumped</text>
</g>
<!-- reset&#45;&gt;start -->
<g id="edge6" class="edge">
<title>reset&#45;&gt;start</title>
<path fill="none" stroke="black" d="M281.25,-34.68C289.52,-39.56 297.05,-45.87 302.04,-54 338.43,-113.26 327.14,-151.18 290.04,-210 272.52,-237.78 239.21,-255.57 212.77,-265.95"/>
<polygon fill="black" stroke="black" points="211.53,-262.68 203.38,-269.45 213.97,-269.24 211.53,-262.68"/>
<text text-anchor="middle" x="430.04" y="-144.8" font-family="Times,serif" font-size="14.00">Lift Fully Retracted/Y Pressed</text>
</g>
</g>
</svg>
