<?xml version="1.0" encoding="UTF-8" standalone="no"?>
<!DOCTYPE svg PUBLIC "-//W3C//DTD SVG 1.1//EN"
 "http://www.w3.org/Graphics/SVG/1.1/DTD/svg11.dtd">
<!-- Generated by graphviz version 2.43.0 (0)
 -->
<!-- Title: %3 Pages: 1 -->
<svg width="656pt" height="260pt"
 viewBox="0.00 0.00 656.08 260.00" xmlns="http://www.w3.org/2000/svg" xmlns:xlink="http://www.w3.org/1999/xlink">
<g id="graph0" class="graph" transform="scale(1 1) rotate(0) translate(4 256)">
<title>%3</title>
<polygon fill="white" stroke="transparent" points="-4,4 -4,-256 652.08,-256 652.08,4 -4,4"/>
<!-- detect -->
<g id="node1" class="node">
<title>detect</title>
<ellipse fill="none" stroke="black" cx="324.04" cy="-234" rx="87.18" ry="18"/>
<text text-anchor="middle" x="324.04" y="-230.3" font-family="Times,serif" font-size="14.00">Detect Skystone</text>
</g>
<!-- posZero -->
<g id="node2" class="node">
<title>posZero</title>
<ellipse fill="none" stroke="black" cx="102.04" cy="-162" rx="102.08" ry="18"/>
<text text-anchor="middle" x="102.04" y="-158.3" font-family="Times,serif" font-size="14.00">Skystone Position 0</text>
</g>
<!-- detect&#45;&gt;posZero -->
<g id="edge1" class="edge">
<title>detect&#45;&gt;posZero</title>
<path fill="none" stroke="black" d="M278.31,-218.58C243.82,-207.71 196.29,-192.72 159.28,-181.05"/>
<polygon fill="black" stroke="black" points="160.22,-177.67 149.63,-178 158.11,-184.35 160.22,-177.67"/>
</g>
<!-- posOne -->
<g id="node3" class="node">
<title>posOne</title>
<ellipse fill="none" stroke="black" cx="324.04" cy="-162" rx="102.08" ry="18"/>
<text text-anchor="middle" x="324.04" y="-158.3" font-family="Times,serif" font-size="14.00">Skystone Position 1</text>
</g>
<!-- detect&#45;&gt;posOne -->
<g id="edge2" class="edge">
<title>detect&#45;&gt;posOne</title>
<path fill="none" stroke="black" d="M324.04,-215.7C324.04,-207.98 324.04,-198.71 324.04,-190.11"/>
<polygon fill="black" stroke="black" points="327.54,-190.1 324.04,-180.1 320.54,-190.1 327.54,-190.1"/>
</g>
<!-- posTwo -->
<g id="node4" class="node">
<title>posTwo</title>
<ellipse fill="none" stroke="black" cx="546.04" cy="-162" rx="102.08" ry="18"/>
<text text-anchor="middle" x="546.04" y="-158.3" font-family="Times,serif" font-size="14.00">Skystone Position 2</text>
</g>
<!-- detect&#45;&gt;posTwo -->
<g id="edge3" class="edge">
<title>detect&#45;&gt;posTwo</title>
<path fill="none" stroke="black" d="M369.77,-218.58C404.26,-207.71 451.79,-192.72 488.8,-181.05"/>
<polygon fill="black" stroke="black" points="489.97,-184.35 498.45,-178 487.87,-177.67 489.97,-184.35"/>
</g>
<!-- move -->
<g id="node5" class="node">
<title>move</title>
<ellipse fill="none" stroke="black" cx="324.04" cy="-90" rx="90.98" ry="18"/>
<text text-anchor="middle" x="324.04" y="-86.3" font-family="Times,serif" font-size="14.00">Foundation Move</text>
</g>
<!-- posZero&#45;&gt;move -->
<g id="edge4" class="edge">
<title>posZero&#45;&gt;move</title>
<path fill="none" stroke="black" d="M149.67,-145.98C184.25,-135.08 231.19,-120.28 267.65,-108.78"/>
<polygon fill="black" stroke="black" points="269.15,-111.98 277.64,-105.63 267.05,-105.3 269.15,-111.98"/>
</g>
<!-- posOne&#45;&gt;move -->
<g id="edge5" class="edge">
<title>posOne&#45;&gt;move</title>
<path fill="none" stroke="black" d="M324.04,-143.7C324.04,-135.98 324.04,-126.71 324.04,-118.11"/>
<polygon fill="black" stroke="black" points="327.54,-118.1 324.04,-108.1 320.54,-118.1 327.54,-118.1"/>
</g>
<!-- posTwo&#45;&gt;move -->
<g id="edge6" class="edge">
<title>posTwo&#45;&gt;move</title>
<path fill="none" stroke="black" d="M498.42,-145.98C463.83,-135.08 416.9,-120.28 380.43,-108.78"/>
<polygon fill="black" stroke="black" points="381.03,-105.3 370.45,-105.63 378.93,-111.98 381.03,-105.3"/>
</g>
<!-- park -->
<g id="node6" class="node">
<title>park</title>
<ellipse fill="none" stroke="black" cx="324.04" cy="-18" rx="31.7" ry="18"/>
<text text-anchor="middle" x="324.04" y="-14.3" font-family="Times,serif" font-size="14.00">Park</text>
</g>
<!-- move&#45;&gt;park -->
<g id="edge7" class="edge">
<title>move&#45;&gt;park</title>
<path fill="none" stroke="black" d="M324.04,-71.7C324.04,-63.98 324.04,-54.71 324.04,-46.11"/>
<polygon fill="black" stroke="black" points="327.54,-46.1 324.04,-36.1 320.54,-46.1 327.54,-46.1"/>
</g>
</g>
</svg>
